HIERARCHY
ROOT Hips
{
  OFFSET 43.0842 91.1655 101.099
  CHANNELS 6 Xposition Yposition Zposition Zrotation Xrotation Yrotation
  JOINT LeftUpLeg
  {
    OFFSET 8.64259 1.95398 -2.38835
    CHANNELS 3 Zrotation Xrotation Yrotation
    JOINT LeftLeg
    {
      OFFSET 43.7702 0 0
      CHANNELS 3 Zrotation Xrotation Yrotation
      JOINT LeftFoot
      {
        OFFSET 40.6238 0 0
        CHANNELS 3 Zrotation Xrotation Yrotation
        JOINT LeftToeBase
        {
          OFFSET 12.7242 0 0
          CHANNELS 3 Zrotation Xrotation Yrotation
          End Site
          {
            OFFSET 0 0 0
          }
        }
      }
    }
  }
  JOINT RightUpLeg
  {
    OFFSET -8.2249 1.95398 -2.59336
    CHANNELS 3 Zrotation Xrotation Yrotation
    JOINT RightLeg
    {
      OFFSET 43.5653 0 0
      CHANNELS 3 Zrotation Xrotation Yrotation
      JOINT RightFoot
      {
        OFFSET 40.6238 0 0
        CHANNELS 3 Zrotation Xrotation Yrotation
        JOINT RightToeBase
        {
          OFFSET 12.7242 0 0
          CHANNELS 3 Zrotation Xrotation Yrotation
          End Site
          {
            OFFSET 0 0 0
          }
        }
      }
    }
  }
  JOINT Spine
  {
    OFFSET 0.165834 0.87714 6.61349
    CHANNELS 3 Zrotation Xrotation Yrotation
    JOINT Spine1
    {
      OFFSET 7.38963 1.71661e-005 0
      CHANNELS 3 Zrotation Xrotation Yrotation
      JOINT Spine2
      {
        OFFSET 11.9445 1.14441e-005 0
        CHANNELS 3 Zrotation Xrotation Yrotation
        JOINT Spine3
        {
          OFFSET 14.7254 4.19617e-005 0
          CHANNELS 3 Zrotation Xrotation Yrotation
          JOINT Spine4
          {
            OFFSET 10.9679 0 0
            CHANNELS 3 Zrotation Xrotation Yrotation
            JOINT RightShoulder
            {
              OFFSET 2.46616 -1.6653 3.69651
              CHANNELS 3 Zrotation Xrotation Yrotation
              JOINT RightArm
              {
                OFFSET 13.0012 0 0
                CHANNELS 3 Zrotation Xrotation Yrotation
                JOINT RightForeArm
                {
                  OFFSET 28.7848 1.52588e-005 0
                  CHANNELS 3 Zrotation Xrotation Yrotation
                  JOINT RightHand
                  {
                    OFFSET 26.5688 1.52588e-005 0
                    CHANNELS 3 Zrotation Xrotation Yrotation
                    End Site
                    {
                      OFFSET 0 0 0
                    }
                  }
                }
              }
            }
            JOINT LeftShoulder
            {
              OFFSET 2.38034 -1.29275 -3.7523
              CHANNELS 3 Zrotation Xrotation Yrotation
              JOINT LeftArm
              {
                OFFSET 16.3182 6.10351e-005 0
                CHANNELS 3 Zrotation Xrotation Yrotation
                JOINT LeftForeArm
                {
                  OFFSET 27.0901 0 0
                  CHANNELS 3 Zrotation Xrotation Yrotation
                  JOINT LeftHand
                  {
                    OFFSET 24.5451 1.52588e-005 0
                    CHANNELS 3 Zrotation Xrotation Yrotation
                    End Site
                    {
                      OFFSET 0 0 0
                    }
                  }
                }
              }
            }
            JOINT Neck
            {
              OFFSET 5.0226 -0.0266342 0
              CHANNELS 3 Zrotation Xrotation Yrotation
              JOINT Head
              {
                OFFSET 6.69364 2.86102e-005 0
                CHANNELS 3 Zrotation Xrotation Yrotation
                End Site
                {
                  OFFSET 0 0 0
                }
              }
            }
          }
        }
      }
    }
  }
}
MOTION
Frames:	14
Frame Time:	0.0333333
-0.92801 97.3393 61.1451 -74.8894 4.24104 -141.185 -166.782 58.3859 112.319 -108.841 38.912 6.37441 66.7075 9.49639 14.1946 48.1112 19.1403 16.5398 179.384 40.3024 50.0754 -21.1718 0.474534 -5.00792 68.2241 -8.69064 -7.95444 28.9041 -1.5787 4.2457 -0.196983 7.71496 -88.7823 11.4357 0.176694 2.40759 -0.237468 0.282451 2.39748 -22.7553 -0.554853 2.34947 -2.74268 -0.554846 2.34946 94.8098 -40.9812 -94.8519 -5.57483 -31.2858 -25.3388 12.5597 0.11765 -119.993 -13.7253 -2.48693 6.36485 -119.749 -65.0876 44.7701 14.1808 -10.9216 12.2378 7.0351 -41.6782 -41.4878 33.8067 4.56232 1.7077 -10.2774 18.735 34.5251 -4.55176 17.0176 13.4146 
-0.363129 96.9033 60.6337 -74.9554 3.5858 -137.441 -144.119 63.1624 87.4407 -111.737 39.5517 4.84434 66.0538 7.65023 13.109 48.8408 20.0981 16.9485 177.334 40.2539 53.9314 -22.0596 3.01352 -3.29406 68.9346 -8.47265 -8.02621 30.8026 -2.26325 3.34831 0.0348667 7.72148 -88.8703 11.4201 0.596822 2.18955 -0.252506 0.6926 2.16116 -22.7728 -0.0886346 2.26766 -2.76019 -0.0886214 2.26766 94.635 -40.2373 -95.2919 -7.47858 -29.3064 -34.4343 6.03574 1.02941 -115.798 -14.1246 -2.61109 6.97796 -121.339 -65.3714 43.0289 15.6957 -14.006 11.9922 5.50933 -38.7655 -46.5976 34.2972 4.56153 1.01519 -10.0883 18.6219 34.9593 -4.64514 16.8205 11.5712 
-0.230941 96.4665 59.7724 -76.544 3.57761 -132.367 -130.632 60.2328 70.9038 -107.826 41.0833 2.52919 64.7988 5.22334 9.56685 49.0774 20.8801 14.9912 174.305 38.0704 59.0137 -23.7607 4.66601 -1.2691 69.6306 -7.54618 -9.46598 32.6782 -2.67844 1.60644 0.218459 7.8202 -89.0346 11.2231 0.883894 1.83469 -0.448818 0.963774 1.79402 -22.9741 0.291762 2.01546 -2.96144 0.291765 2.01546 94.4098 -39.6987 -95.7876 -8.14716 -27.9069 -42.2252 3.29006 0.215998 -111.682 -14.6534 -2.78666 6.44584 -120.55 -65.272 43.9107 17.5122 -18.2513 12.0659 3.07292 -33.9937 -52.0486 36.5056 4.83061 0.428853 -10.7862 18.4008 34.0397 -3.84839 16.9395 11.3224 
-0.562561 95.8436 58.6229 -79.0992 3.59784 -127.934 -131.02 54.2693 67.6319 -96.6874 40.2894 -2.13577 62.3843 1.133 1.98297 48.0255 19.6676 13.8864 172.213 34.9672 63.2677 -26.4699 3.9544 -0.0911932 70.3724 -6.89041 -12.8062 32.4742 -3.13171 3.36766 0.36675 7.92605 -89.0911 11.0101 1.15128 1.69871 -0.661412 1.2249 1.64641 -23.189 0.58763 1.96608 -3.17635 0.587629 1.96608 94.0242 -39.557 -96.4965 -8.68237 -27.2169 -47.638 0.939929 -0.167135 -110.301 -14.9205 -2.8729 6.03298 -118.524 -64.9483 46.159 20.7462 -24.3204 13.5256 0.35484 -25.553 -59.283 38.3487 5.12302 0.554784 -12.4635 17.8316 32.8891 -1.72799 17.1283 11.2817 
-1.18644 95.1411 57.1198 -81.2077 2.90656 -123.626 -138.26 49.2219 70.9358 -82.3111 34.6249 -7.3299 56.9801 -5.16695 -9.44278 46.8868 18.6929 11.6917 171.182 31.2831 67.8136 -28.1637 2.14245 0.326262 70.6453 -6.79497 -16.6436 32.0744 -3.33563 4.72116 0.502811 7.94156 -89.1427 10.9788 1.39806 1.57267 -0.692246 1.46589 1.50964 -23.2226 0.860851 1.92004 -3.2099 0.860836 1.92003 93.7055 -39.0503 -97.1656 -9.06926 -26.0756 -51.5584 -0.769766 -0.272338 -110.888 -14.6852 -2.79668 5.89028 -115.858 -64.4575 49.128 25.3309 -31.1784 15.424 -1.02383 -14.6912 -66.3248 39.8499 5.40242 0.878043 -13.2626 17.4822 31.4047 -0.369423 17.1799 11.1827 
-2.03198 94.8863 55.4247 -82.8619 1.12412 -118.473 -149.717 45.0349 76.8614 -68.2187 26.6263 -10.2319 49.731 -10.9607 -21.1067 44.1549 15.7512 9.13556 170.265 26.4133 73.186 -27.0452 2.26341 1.15815 69.802 -6.16492 -19.3172 32.1842 -2.96767 3.35099 0.590729 7.82023 -89.3044 11.2243 1.49931 1.23781 -0.446273 1.55232 1.17062 -22.9807 1.05803 1.63114 -2.96801 1.05802 1.63113 93.8096 -37.9846 -97.2089 -8.42268 -25.0489 -54.0421 -2.19274 -0.163721 -111.986 -13.6091 -2.45189 5.88634 -112.326 -63.5346 53.0262 29.7506 -36.0183 17.1377 -1.94051 -4.64324 -72.4226 41.3728 5.7223 1.36785 -13.5313 17.4667 28.7773 -0.552109 17.2813 11.8164 
-3.29579 94.9917 53.8825 -85.1495 -0.980352 -113.973 -160.686 37.9771 81.0942 -54.5018 21.574 -10.6668 46.7668 -12.8926 -24.9125 40.2684 10.4745 9.29608 169.199 21.0881 77.3374 -25.507 4.62892 2.43006 69.0338 -5.0062 -19.449 32.8425 -3.0523 2.53955 0.66121 7.76796 -89.4476 11.3311 1.57324 0.942466 -0.339168 1.61319 0.87229 -22.8766 1.21728 1.37172 -2.86396 1.21727 1.3717 94.8088 -35.8061 -95.8266 -5.77663 -25.5838 -54.5786 -3.82334 0.574361 -113.791 -12.8584 -2.20754 5.94337 -110.373 -62.7338 55.1025 33.9362 -38.9317 17.5432 -1.59573 2.77665 -77.073 42.8616 6.05597 1.87268 -13.9138 16.9578 26.0696 -0.689184 16.9319 12.4854 
-4.70263 95.3892 52.3384 -87.1262 -2.51096 -109.894 -167.606 30.1603 83.3743 -42.6825 17.9195 -9.6647 46.8464 -13.3844 -22.7976 38.4875 8.90102 7.39715 168.342 17.5762 80.6529 -26.9325 3.4515 3.74575 67.532 -3.02197 -17.2099 34.4161 -3.12337 -0.115452 0.687597 7.80154 -89.5355 11.2653 1.58463 0.767943 -0.404898 1.61689 0.697437 -22.9437 1.28058 1.20872 -2.93109 1.28058 1.20871 95.7271 -34.1249 -94.4299 -4.8522 -27.7575 -55.2242 -6.83949 3.22422 -116.496 -13.9566 -2.55946 7.55038 -107.999 -61.7252 57.6802 37.6603 -43.6781 17.8369 -1.37855 10.1043 -80.1256 44.2747 6.32006 2.03345 -12.8298 16.9263 24.7646 -0.836757 16.6361 11.5245 
-5.90407 96.168 50.8407 -88.4553 -3.54366 -105.451 -170.987 23.7197 85.3264 -33.9467 14.331 -8.43396 48.6514 -12.3998 -20.075 37.328 7.87726 6.16734 167.141 17.0987 83.525 -32.631 0.646228 5.06246 62.9899 0.94628 -10.9751 38.7875 -5.33327 -0.602717 0.583808 7.83985 -89.6356 11.1913 1.33141 0.594683 -0.479045 1.35628 0.5355 -23.0171 1.09113 0.96736 -3.00441 1.09115 0.967365 95.8209 -34.6182 -94.1579 -5.16134 -28.4394 -55.9376 -10.3849 5.35024 -118.271 -13.9506 -2.55214 7.93605 -104.963 -60.2467 60.9946 42.2152 -49.4261 21.0439 -2.65704 16.6099 -83.5334 45.1841 6.45692 1.95863 -11.6034 17.8577 23.3508 -1.13852 17.29 11.2965 
-6.96902 96.7234 49.6422 -90.0996 -4.67176 -101.275 -172.148 18.2619 86.8902 -28.3375 12.8496 -7.67614 50.8426 -10.9078 -16.9242 37.2916 6.90804 8.06037 164.974 18.6251 85.1164 -41.9573 0.296181 5.60997 58.8095 2.00636 1.60196 36.9922 -3.87737 -2.14675 0.391013 7.89753 -89.7151 11.0765 0.910545 0.478916 -0.594167 0.930743 0.438361 -23.1304 0.724511 0.730432 -3.11771 0.724519 0.730429 95.531 -36.9155 -94.2881 -6.22585 -28.6595 -56.1548 -11.3489 6.38185 -119.284 -12.5164 -2.07509 7.03141 -103.094 -58.8064 62.9156 46.8633 -52.8802 24.4686 -3.74099 19.9469 -84.5502 45.0845 6.33507 1.44295 -11.8418 18.5551 21.0426 -0.834605 18.1621 11.9379 
-7.88649 96.4251 48.654 -91.5083 -6.5745 -97.6969 -171.746 14.6843 88.2353 -25.8598 12.5311 -7.73321 52.8555 -10.0446 -10.7986 37.3746 7.2049 7.71136 163.852 20.3427 85.2575 -50.2114 -3.21698 4.64223 58.5235 0.686447 8.58298 35.0403 -1.52169 -6.67035 0.214556 7.88397 -89.7766 11.105 0.530898 0.39325 -0.565901 0.547706 0.369491 -23.1011 0.388174 0.534627 -3.08845 0.388156 0.534608 95.2742 -39.3711 -94.3195 -7.02118 -29.2721 -55.9822 -11.4238 7.87538 -120.023 -11.2091 -1.65493 6.74245 -101.647 -57.4791 64.3731 49.1154 -55.4099 24.3496 -2.47158 21.6097 -84.4411 44.19 6.08928 0.948321 -13.4079 18.4605 18.404 0.335806 18.5636 12.465 
-8.65838 95.5074 47.768 -92.025 -8.92613 -94.2348 -170.902 13.9139 90.1273 -25.4119 7.5982 -8.37864 57.831 -6.27003 -2.99407 34.8641 4.27451 6.58721 164.625 21.0105 84.2582 -53.5791 -5.33418 2.66671 60.0674 -0.335318 5.31685 38.8691 -3.36918 -8.62951 0.087151 7.73697 -89.8936 11.3996 0.223146 0.189867 -0.271323 0.231284 0.179858 -22.8065 0.15577 0.248154 -2.79381 0.155761 0.248144 95.0102 -40.5666 -94.5754 -4.85108 -28.5105 -55.8929 -10.8718 7.05233 -120.771 -10.4651 -1.38633 7.29263 -100.387 -56.5674 65.7626 48.2048 -57.8364 19.8993 -0.384925 22.191 -83.5352 43.2983 5.91379 0.760637 -14.6282 18.1913 15.8497 0.550776 18.6122 13.5544 
-9.23005 94.6176 46.8736 -92.1566 -11.4959 -90.9541 -170.515 15.2208 92.7665 -26.2303 4.67762 -8.53064 61.4235 -3.39493 3.19543 32.6226 3.01692 3.4776 165.998 20.0874 82.2421 -51.3532 -0.965576 0.670762 61.0343 -1.77988 3.63929 39.9729 -3.84214 -9.55329 0.0346938 7.58083 -90.0597 11.7129 0.0410392 -0.122865 0.0419583 0.0355973 -0.124558 -22.4932 0.0760768 -0.104852 -2.48059 0.0760742 -0.104854 95.0869 -41.2599 -94.3241 -2.30153 -27.7139 -57.4481 -11.3854 6.18521 -120.796 -9.29526 -0.92897 8.48867 -100.701 -56.8059 65.419 46.3974 -60.8718 12.6736 0.923409 22.2748 -81.4465 41.1579 5.50647 0.317566 -13.4746 18.3349 13.7133 -1.72748 18.3961 13.8943 
-9.55018 93.4735 45.7931 -91.8021 -15.4189 -88.1606 -170.669 17.9031 94.6806 -28.5717 12.9215 -7.3587 62.7862 -0.49135 10.4916 31.9308 2.85463 2.0958 166.705 18.2439 79.6788 -45.2682 5.07731 -0.29016 60.8336 -1.70563 4.18375 39.4876 -3.83308 -8.38204 -0.00833781 7.4881 -90.17 11.8969 -0.0965575 -0.328979 0.225874 -0.110925 -0.324422 -22.3089 0.00678204 -0.342792 -2.29625 0.00677999 -0.342793 95.6227 -42.7557 -93.17 -1.07157 -27.2479 -59.406 -12.5137 6.3799 -120.372 -8.92809 -0.771601 9.11146 -102.621 -57.9465 63.2363 38.6054 -61.4227 -1.48586 4.56334 19.1836 -77.7854 37.4553 4.82481 -0.681195 -11.397 17.9323 10.7302 -3.59029 17.6223 14.5022 
